<svg fill="none" height="304" viewBox="0 0 269 304" width="269" xmlns="http://www.w3.org/2000/svg" xmlns:xlink="http://www.w3.org/1999/xlink"><filter id="a" color-interpolation-filters="sRGB" filterUnits="userSpaceOnUse" height="36.0741" width="271.794" x="-2.09212" y="107.18"><feFlood flood-opacity="0" result="BackgroundImageFix"/><feColorMatrix in="SourceAlpha" result="hardAlpha" type="matrix" values="0 0 0 0 0 0 0 0 0 0 0 0 0 0 0 0 0 0 127 0"/><feOffset dy="2.80208"/><feGaussianBlur stdDeviation="1.40104"/><feComposite in2="hardAlpha" operator="out"/><feColorMatrix type="matrix" values="0 0 0 0 0.0121875 0 0 0 0 0.116756 0 0 0 0 0.4875 0 0 0 0.25 0"/><feBlend in2="BackgroundImageFix" mode="normal" result="effect1_dropShadow_73_3411"/><feBlend in="SourceGraphic" in2="effect1_dropShadow_73_3411" mode="normal" result="shape"/></filter><filter id="b" color-interpolation-filters="sRGB" filterUnits="userSpaceOnUse" height="74.3601" width="74.3602" x="97.4332" y="228.73"><feFlood flood-opacity="0" result="BackgroundImageFix"/><feBlend in="SourceGraphic" in2="BackgroundImageFix" mode="normal" result="shape"/><feColorMatrix in="SourceAlpha" result="hardAlpha" type="matrix" values="0 0 0 0 0 0 0 0 0 0 0 0 0 0 0 0 0 0 127 0"/><feOffset dx="-.84858" dy="-.84858"/><feGaussianBlur stdDeviation=".42429"/><feComposite in2="hardAlpha" k2="-1" k3="1" operator="arithmetic"/><feColorMatrix type="matrix" values="0 0 0 0 0 0 0 0 0 0 0 0 0 0 0 0 0 0 0.15 0"/><feBlend in2="shape" mode="normal" result="effect1_innerShadow_73_3411"/></filter><filter id="c" color-interpolation-filters="sRGB" filterUnits="userSpaceOnUse" height="78.4632" width="77.0142" x="96.3724" y="227.669"><feFlood flood-opacity="0" result="BackgroundImageFix"/><feBlend in="SourceGraphic" in2="BackgroundImageFix" mode="normal" result="shape"/><feColorMatrix in="SourceAlpha" result="hardAlpha" type="matrix" values="0 0 0 0 0 0 0 0 0 0 0 0 0 0 0 0 0 0 127 0"/><feOffset dx="3.5026" dy="4.90365"/><feGaussianBlur stdDeviation="5.60417"/><feComposite in2="hardAlpha" k2="-1" k3="1" operator="arithmetic"/><feColorMatrix type="matrix" values="0 0 0 0 0.325 0 0 0 0 0.132708 0 0 0 0 0.132708 0 0 0 0.25 0"/><feBlend in2="shape" mode="normal" result="effect1_innerShadow_73_3411"/><feColorMatrix in="SourceAlpha" result="hardAlpha" type="matrix" values="0 0 0 0 0 0 0 0 0 0 0 0 0 0 0 0 0 0 127 0"/><feOffset dx=".700521" dy="1.40104"/><feComposite in2="hardAlpha" k2="-1" k3="1" operator="arithmetic"/><feColorMatrix type="matrix" values="0 0 0 0 0.2875 0 0 0 0 0.0934375 0 0 0 0 0.0934375 0 0 0 0.25 0"/><feBlend in2="effect1_innerShadow_73_3411" mode="normal" result="effect2_innerShadow_73_3411"/></filter><filter id="d" color-interpolation-filters="sRGB" filterUnits="userSpaceOnUse" height="72.422" width="73.5542" x="96.373" y="229.491"><feFlood flood-opacity="0" result="BackgroundImageFix"/><feBlend in="SourceGraphic" in2="BackgroundImageFix" mode="normal" result="shape"/><feColorMatrix in="SourceAlpha" result="hardAlpha" type="matrix" values="0 0 0 0 0 0 0 0 0 0 0 0 0 0 0 0 0 0 127 0"/><feOffset dy="1.40104"/><feGaussianBlur stdDeviation=".35026"/><feComposite in2="hardAlpha" k2="-1" k3="1" operator="arithmetic"/><feColorMatrix type="matrix" values="0 0 0 0 0.179167 0 0 0 0 0.0604687 0 0 0 0 0.0604687 0 0 0 0.25 0"/><feBlend in2="shape" mode="normal" result="effect1_innerShadow_73_3411"/></filter><filter id="e" color-interpolation-filters="sRGB" filterUnits="userSpaceOnUse" height="12.9441" width="31.5026" x="118.48" y="247.056"><feFlood flood-opacity="0" result="BackgroundImageFix"/><feBlend in="SourceGraphic" in2="BackgroundImageFix" mode="normal" result="shape"/><feColorMatrix in="SourceAlpha" result="hardAlpha" type="matrix" values="0 0 0 0 0 0 0 0 0 0 0 0 0 0 0 0 0 0 127 0"/><feOffset dx="-1.11578" dy="-1.11578"/><feGaussianBlur stdDeviation=".55789"/><feComposite in2="hardAlpha" k2="-1" k3="1" operator="arithmetic"/><feColorMatrix type="matrix" values="0 0 0 0 0 0 0 0 0 0 0 0 0 0 0 0 0 0 0.15 0"/><feBlend in2="shape" mode="normal" result="effect1_innerShadow_73_3411"/></filter><filter id="f" color-interpolation-filters="sRGB" filterUnits="userSpaceOnUse" height="17.5564" width="58.6051" x="105.068" y="261.73"><feFlood flood-opacity="0" result="BackgroundImageFix"/><feBlend in="SourceGraphic" in2="BackgroundImageFix" mode="normal" result="shape"/><feColorMatrix in="SourceAlpha" result="hardAlpha" type="matrix" values="0 0 0 0 0 0 0 0 0 0 0 0 0 0 0 0 0 0 127 0"/><feOffset dx="-1.53032" dy="-1.53032"/><feGaussianBlur stdDeviation=".765158"/><feComposite in2="hardAlpha" k2="-1" k3="1" operator="arithmetic"/><feColorMatrix type="matrix" values="0 0 0 0 0 0 0 0 0 0 0 0 0 0 0 0 0 0 0.15 0"/><feBlend in2="shape" mode="normal" result="effect1_innerShadow_73_3411"/></filter><linearGradient id="g"><stop offset="0" stop-color="#005491"/><stop offset="1" stop-color="#e1edf5"/></linearGradient><linearGradient id="h" gradientUnits="userSpaceOnUse" x1="128.334" x2="136.928" xlink:href="#g" y1="109.476" y2="152.783"/><linearGradient id="i" gradientUnits="userSpaceOnUse" x1="218.199" x2="226.644" xlink:href="#g" y1="109.476" y2="152.844"/><linearGradient id="j" gradientUnits="userSpaceOnUse" x1="39.514" x2="48.2209" xlink:href="#g" y1="108.626" y2="151.887"/><radialGradient id="k" cx="0" cy="0" gradientTransform="matrix(-.42432808 118.07723756 -232.65549771 -.83608206 134.505 12.6462)" gradientUnits="userSpaceOnUse" r="1"><stop offset="0" stop-color="#8acdfd"/><stop offset="1" stop-color="#006ebe"/></radialGradient><linearGradient id="l"><stop offset="0" stop-color="#aadbff"/><stop offset=".95" stop-color="#0073c8"/></linearGradient><linearGradient id="m" gradientUnits="userSpaceOnUse" x1="60.88" x2="77.55" xlink:href="#l" y1="221.85" y2="144.06"/><linearGradient id="n" gradientUnits="userSpaceOnUse" x1="195.26" x2="211.34" xlink:href="#l" y1="222.73" y2="146.39"/><linearGradient id="o" gradientUnits="userSpaceOnUse" x1="141.32" x2="177.55" xlink:href="#l" y1="212.73" y2="156.8"/><linearGradient id="p" gradientUnits="userSpaceOnUse" x1="171.23" x2="188.81" xlink:href="#l" y1="222.7" y2="158.62"/><linearGradient id="q" gradientUnits="userSpaceOnUse" x1="97.03" x2="132.65" xlink:href="#l" y1="213.81" y2="155.52"/><linearGradient id="r" gradientUnits="userSpaceOnUse" x1="132.02" x2="135.62" xlink:href="#l" y1="197.37" y2="197.18"/><linearGradient id="s" gradientUnits="userSpaceOnUse" x1="81.96" x2="99.94" xlink:href="#l" y1="222.8" y2="157.55"/><radialGradient id="t" cx="0" cy="0" gradientTransform="matrix(28.06389866 33.37645938 -33.37645938 28.06389866 138.101 268.127)" gradientUnits="userSpaceOnUse" r="1"><stop offset=".713403" stop-color="#879356"/><stop offset=".764119" stop-color="#b3c56a"/><stop offset=".826727" stop-color="#879356"/></radialGradient><linearGradient id="u" gradientUnits="userSpaceOnUse" x1="106.634" x2="164.298" y1="233.803" y2="299.604"><stop offset=".359375" stop-color="#e5fd85"/><stop offset=".442708" stop-color="#f5ffce"/><stop offset=".572917" stop-color="#e5fd85"/></linearGradient><clipPath id="v"><path d="m0 0h269.01v303.09h-269.01z"/></clipPath><g clip-path="url(#v)"><path clip-rule="evenodd" d="m133.02 116.26-44.76 10.18v12.73c1.55.19 3.1.36 4.65.53 6.4.69 13.04 1.41 21.63 4.14 5.44 1.73 11.3 4.79 15.12 6.79 1.47.77 2.64 1.38 3.36 1.69.72-.31 1.89-.92 3.36-1.69 3.82-2 9.68-5.06 15.12-6.79 8.59-2.73 15.23-3.45 21.63-4.14 1.56-.17 3.1-.34 4.65-.53v-12.73z" fill="url(#h)" fill-rule="evenodd"/><path clip-rule="evenodd" d="m268.16 126.44-45.4-10.18-45.4 10.18v12.73c1.57.19 3.14.36 4.72.53 6.49.69 13.23 1.41 21.94 4.14 5.51 1.73 11.46 4.79 15.34 6.79 1.49.77 2.67 1.38 3.41 1.69.73-.31 1.92-.92 3.41-1.69 3.87-2 9.82-5.06 15.33-6.79 8.86-2.78 15.67-3 22.51-3.22 1.52-.05 3.03-.1 4.57-.17l-.42-14z" fill="url(#i)" fill-rule="evenodd"/><path d="m44.13 115.41-41.15 10.18-2.98 12.73c1.53.19 3.05.36 4.59.53 6.31.69 12.86 1.41 21.32 4.14 5.36 1.73 11.14 4.8 14.91 6.79 1.45.77 2.6 1.38 3.31 1.69.71-.32 1.86-.92 3.31-1.69 3.76-2 9.55-5.06 14.91-6.79 7.86-2.53 14.07-3.1 19.97-3.63 2-.18 3.63-.05 5.61-.3l.34-13.46-44.13-10.18z" fill="url(#j)"/><g filter="url(#a)"><path d="m40.29 122.24c-19.61-.28-34.56004 10.16-39.580039 15.41l4.549999-7.35 15.06004-13.66 108.23-9.46 73.9 1.05 63.05 15.06 1.4 14.36c-3.04-3.62-14.78-11.77-37.48-15.41s-44.02 7.82-51.84 14.01c-7.82-4.2-27.67-12.96-44.48-14.36s-36.89 8.99-44.83 14.36c-7.82-4.55-28.37-13.73-47.99-14.01z" fill="#c4c4c4"/></g><path clip-rule="evenodd" d="m268.85 141.12c.11-2.19.16-4.4.16-6.62 0-74.28-60.22-134.5-134.5-134.5s-134.51 60.22-134.51 134.5c0 1.33.02 2.66.06 3.98 12.15-9.16 27.26-14.59 43.64-14.59s32.25 5.71 44.55 15.28c12.3-9.58 27.76-15.28 44.55-15.28s32.26 5.71 44.55 15.28c12.3-9.58 27.76-15.28 44.55-15.28 17.9 0 34.28 6.48 46.94 17.22z" fill="url(#k)" fill-rule="evenodd"/><g stroke-linecap="round" stroke-width=".99"><path d="m.5 138.35 134.01 105.19" stroke="url(#m)"/><path d="m268.3 141.15-133.38 102.81" stroke="url(#n)"/><path d="m177.36 139.17-43.28 102.68" stroke="url(#o)"/><path d="m222.42 152.36-88.34 89.48" stroke="url(#p)"/><path d="m88.27 139.05 45.81 103.22" stroke="url(#q)"/><path d="m132.81 152.32 1.27 89.95" stroke="url(#r)"/><path d="m44.13 151.47 89.95 90.8" stroke="url(#s)"/></g><path d="m139.51 60.27c0-2.92-2.37-5.29-5.29-5.29s-5.29 2.37-5.29 5.29c0 2.04 1.16 3.81 2.86 4.69l-1.96 8.48h8.78l-1.96-8.48c1.7-.88 2.86-2.65 2.86-4.69z" fill="#fff"/><path d="m154.9 70.88c-1.03 7.97-7.86 14.16-16.1 14.16h-9.16c-8.96 0-16.24-7.29-16.24-16.24v-9.16c0-8.96 7.29-16.24 16.24-16.24h9.16c8.25 0 15.08 6.18 16.1 14.16h5.43c-1.05-10.95-10.31-19.55-21.53-19.55h-9.16c-11.93 0-21.63 9.71-21.63 21.63v9.16c0 11.93 9.71 21.63 21.63 21.63h9.16c11.22 0 20.48-8.59 21.53-19.55z" fill="#fff"/><path d="m120.6 260 4.26-11.83h3l4.26 11.83h-2.63l-.87-2.52h-4.55l-.87 2.52h-2.62zm4.2-4.6h3.13l-1.57-4.56-1.57 4.56zm10.32-7.23h2.53v11.83h-2.53zm11.5 0c2.45 0 4.25 1.27 4.25 3.55 0 1.5-.87 2.52-2.15 2.85 1.27.15 1.87.75 1.97 2.03l.3 3.4h-2.55l-.23-2.96c-.08-1.03-.63-1.37-2.02-1.37h-2.22v4.33h-2.53v-11.83zm-2.65 5.38h2.28c1.3 0 2.02-.58 2.02-1.62s-.7-1.63-2.02-1.63h-2.28z" fill="#727b4e"/><path d="m112.9 263.61c4.97 0 7.75 2.77 7.75 7.69s-2.74 7.65-7.62 7.65h-5.42v-15.34zm-2.01 12.57h2.01c2.98 0 4.41-1.58 4.41-4.9s-1.42-4.9-4.41-4.9h-2.01v9.81zm18.64-12.57c3.18 0 5.51 1.64 5.51 4.6 0 1.94-1.12 3.26-2.79 3.69 1.64.19 2.42.97 2.55 2.64l.39 4.41h-3.3l-.3-3.84c-.11-1.34-.82-1.77-2.61-1.77h-2.87v5.62h-3.28v-15.34h6.72zm-3.44 6.97h2.96c1.68 0 2.61-.76 2.61-2.1s-.91-2.12-2.61-2.12h-2.96v4.21zm17.12 8.71c-4.67 0-7.45-3.07-7.45-7.99s2.79-8.04 7.45-8.04 7.47 3.07 7.47 8.04-2.81 7.99-7.47 7.99zm-4.06-7.99c0 3.28 1.51 5.23 4.06 5.23s4.08-1.94 4.08-5.23-1.49-5.27-4.08-5.27-4.06 1.97-4.06 5.27zm19.63-7.69c3.67 0 5.9 1.9 5.9 5.01s-2.22 5.03-5.9 5.03h-2.85v5.29h-3.28v-15.34h6.13zm-2.85 7.28h2.66c1.73 0 2.72-.78 2.72-2.27s-.99-2.25-2.72-2.25h-2.66v4.51z" fill="#7c75ff"/><g filter="url(#b)"><circle cx="135.038" cy="266.334" fill="url(#t)" r="36.7558"/></g><g filter="url(#c)"><ellipse cx="133.128" cy="264.449" fill="url(#u)" rx="36.7558" ry="36.7798"/></g><g filter="url(#d)" opacity=".3"><path clip-rule="evenodd" d="m106.215 240.582.865.858c-.128.27-.08.595.145.817.28.278.736.278 1.024 0 .289-.277.281-.73 0-1.015-.224-.222-.552-.27-.824-.143l-.874-.866c-.113.116-.225.232-.336.349zm-8.4072 14.551c.051-.173.1033-.346.1569-.519l3.2953 3.266h6.261c.096-.277.368-.476.68-.476.401 0 .721.318.721.714 0 .397-.32.714-.721.714-.312 0-.584-.198-.68-.476h-6.461zm-.6581 2.601c.0398-.187.0811-.374.1239-.56l3.4264 3.396h4.467l3.347 3.317v8.378l5.992 5.939c.577-.51 1.339-.821 2.174-.821.075 0 .149.003.223.008l-5.82-5.768v-8.236c-.28-.095-.48-.365-.48-.675 0-.396.32-.714.721-.714.4 0 .72.318.72.714 0 .31-.2.58-.48.675v8.037l6.203 6.143c.928.325 1.664 1.054 1.993 1.973l1.467 1.453v4.737l5.988 5.935c.577-.508 1.337-.817 2.17-.817 1.804 0 3.266 1.449 3.266 3.237s-1.462 3.237-3.266 3.237c-.509 0-.992-.115-1.422-.321l4.251 4.212c-.236-.006-.471-.014-.705-.024l-26.078-25.845h-3.883l-3.8505-3.817h-.7517c-.0288-.158-.0565-.317-.0832-.476h1.027l3.8504 3.817h3.891l20.812 20.626c-.208-.426-.324-.904-.324-1.409 0-.789.284-1.512.757-2.073l-6.129-6.075v-4.737l-.809-.801c.005.073.008.147.008.222 0 1.787-1.462 3.237-3.266 3.237s-3.267-1.45-3.267-3.237c0-.787.283-1.509.755-2.07l-6.143-6.087v-8.379l-3.066-3.039h-4.467zm-.7767 7.224c.0008-.159.0027-.318.0056-.476h5.7784c.096-.278.368-.476.68-.476.401 0 .721.317.721.714s-.32.714-.721.714c-.32 0-.584-.198-.688-.476zm.0551 2.19c-.0089-.159-.0166-.317-.0234-.476h3.8303c.096-.278.369-.476.681-.476.4 0 .72.317.72.714 0 .396-.32.714-.72.714-.32 0-.585-.199-.681-.476zm.1898 2.19c-.0187-.159-.0363-.317-.0529-.476h1.7489c.0961-.278.3603-.477.6805-.477.4003 0 .7206.318.7206.715 0 .396-.3203.714-.7206.714-.3122 0-.5844-.199-.6805-.476zm1.4415 6.642c-.1015-.316-.1986-.635-.2913-.955l3.3079 3.279h4.499l17.661 17.495c.273-.127.601-.079.825.143.28.285.288.738 0 1.015-.288.278-.744.278-1.025 0-.224-.222-.264-.547-.136-.817l-17.517-17.36h-4.499zm12.3046 17.488c-1.47-1.14-2.849-2.388-4.125-3.731h.361zm6.94 4.245c-.161-.075-.321-.152-.48-.23v-3.699l-11.857-11.751h-4.326c-.085-.158-.17-.317-.253-.476h4.779l12.137 12.028zm-14.977-12.877c.13-.124.309-.201.502-.201.401 0 .721.318.721.714 0 .289-.17.536-.417.649-.276-.382-.545-.769-.806-1.162zm34.629 16.197c-.204.021-.409.04-.615.057l-1.608-1.594 3.186-3.158v-1.674h-.128v-1.587h.737v1.587h-.128v1.865l-2.994 2.967zm3.253-.473c-.157.03-.314.059-.472.087v-5.983h-.128v-1.587h.728v1.587h-.128zm2.999-.702c-.176.049-.352.097-.529.143l-1.141-1.131v-4.206h-.128v-1.587h.729v1.587h-.121v4.015zm2.145-.667c-.167.057-.334.114-.502.169l-1.496-1.482v-3.214h-.128v-1.587h.729v1.587h-.128v3.015zm1.966-.742c-.159.066-.319.13-.479.193l-1.691-1.677v-2.301h-.128v-1.587h.736v1.587h-.128v2.111zm2.906-1.341c-.316.163-.636.322-.958.476h-1.052l-1.257-1.254v-1.666h-.128v-1.587h.729v1.587h-.121v1.476l.977.968zm7.826-5.411c-.178.16-.357.319-.538.476h-1.38l-6.837-6.776v-3.872l5.172-5.126h13.635c-.053.16-.107.318-.163.477h-13.272l-4.9 4.847v3.476l6.557 6.498zm6.255-7.371c-.103.16-.206.318-.311.476h-5.588l-3.003-2.975c-.272.127-.6.079-.824-.143-.28-.286-.28-.738 0-1.016.288-.277.744-.277 1.025 0 .224.222.272.548.144.818l2.858 2.832v.008zm4.935-12.209c-.037.187-.076.374-.116.56l-3.065-3.038h-9.006l-9.616 9.529h-14.739c-.096.278-.368.476-.68.476-.4 0-.721-.317-.721-.714 0-.396.321-.714.721-.714.312 0 .584.199.68.476h14.539l9.615-9.529h9.407zm.525-3.566c-.02.204-.041.408-.064.611l-1.72-1.705h-4.509c-.533.375-1.185.595-1.888.595s-1.355-.22-1.888-.595h-.922l-15.7-15.559h-15.999c1.475.312 2.581 1.611 2.581 3.166 0 .663-.201 1.28-.546 1.793h14.164l7.038 6.974c.272-.127.6-.079.824.143.28.286.28.738 0 1.016-.288.277-.744.277-1.025 0-.224-.222-.272-.548-.144-.818l-6.901-6.839h-14.347c-.592.597-1.417.968-2.329.968-1.804 0-3.267-1.449-3.267-3.237 0-1.555 1.106-2.854 2.581-3.166h-4.182l-13.35-13.231c.118-.108.237-.215.357-.321l13.185 13.068h21.56l15.7 15.567h.183c-.522-.574-.839-1.333-.839-2.166 0-1.637 1.225-2.99 2.816-3.207l-2.368-2.347h-3.891l-18.637-18.475c-1.239-.27-2.215-1.237-2.487-2.466l-8.491-8.418c.185-.039.37-.078.556-.114l7.86 7.788c.025-1.766 1.478-3.19 3.266-3.19 1.804 0 3.266 1.45 3.266 3.238 0 .815-.304 1.56-.806 2.129l15.729 15.596h4.5l5.107 5.062h4.874c.021.159.041.317.061.477h-5.135l-5.108-5.063h-4.499l-15.875-15.733c-.559.47-1.279.757-2.067.769l18.086 17.924h3.891l2.824 2.799c.858.053 1.625.434 2.177 1.017h5.869c.011.159.022.317.031.476h-5.527c.318.494.504 1.079.51 1.706h5.074c.002.121.002.243.002.364v.136l-.024-.024h-5.082c-.091.658-.381 1.252-.809 1.722h4.17zm-.516-10.329c.032.158.062.317.091.476h-2.88l-6.181-6.126h-4.932l-12.137-12.028v-6.665l-4.427-4.388c.273.041.544.085.814.132l4.094 4.057v6.665l11.848 11.751h4.94l6.181 6.126zm-.778-3.157c.092.31.179.622.263.935l-3.86-3.825c-.272.127-.6.08-.824-.142-.28-.286-.28-.738 0-1.016.288-.278.744-.278 1.025 0 .224.222.272.547.144.825zm-2.916-6.992c.251.459.493.923.725 1.393l-3.383-3.352h-10.496l-6.757-6.697v-4.475c-.28-.095-.48-.365-.48-.674 0-.397.32-.715.72-.715.401 0 .721.318.721.715 0 .309-.2.579-.481.674v4.285l6.477 6.411h10.496zm-3.971-5.807c.132.157.262.316.392.476h-2.249c-.104.277-.369.476-.681.476-.4 0-.72-.318-.72-.714 0-.397.32-.715.72-.715.312 0 .585.199.681.477zm-3.049-3.222c.168.157.335.316.499.476h-1.773l-5.607-5.557c.601.344 1.192.705 1.771 1.081l4.036 4zm-42.481-5.848c.16-.082.32-.163.48-.243v2.513l2.266 2.245h7.918l10.208 10.108c.272-.126.6-.079.824.143.28.286.288.738 0 1.016s-.744.278-1.025 0c-.224-.222-.272-.548-.144-.817l-10.063-9.974h-7.918l-2.546-2.523zm-4.806 2.966 6.744 6.683.08.071h5.484l2.706 2.682c-.128.27-.08.595.144.817.28.278.736.278 1.025 0 .288-.278.28-.73 0-1.016-.225-.222-.553-.269-.825-.142l-2.85-2.825h-5.484l-6.624-6.557c-.134.095-.267.19-.4.287zm-11.945 14.847c.0681-.157.1372-.313.2075-.468h.8435v-.127h1.602v.722h-1.602v-.127zm.844-1.801c.1-.199.202-.398.306-.595h1.503v.722h-1.602v-.127zm.893-1.666c.139-.243.28-.483.424-.722h.492v.722zm26.671 38.474-14.851-14.719v-12.473l-4.283-4.244h-2.714v.127h-1.602v-.723h1.602v.119h2.914l4.563 4.523v12.481l14.715 14.568c.272-.127.601-.08.825.142.28.286.288.738 0 1.016-.289.278-.745.278-1.025 0-.224-.222-.272-.547-.144-.817zm-27.357-33.825h1.602v.722h-1.602zm0 1.793h1.602v.723h-1.602zm50.166 15.655h.576c.096.278.368.476.681.476.4 0 .72-.317.72-.714s-.32-.714-.72-.714c-.313 0-.585.198-.681.476h-.776l-5.949 5.895h-15.788l-8.198-8.117v-6.157l-9.583-9.497c.128-.27.08-.595-.144-.817-.28-.278-.736-.278-1.025 0-.288.277-.28.73 0 1.015.225.222.553.27.825.143l9.447 9.363v6.157l8.478 8.402h16.188zm-46.259-22.819h1.602v.722h-1.602zm1.602 1.793h-1.602v.722h1.602zm0 1.793h-1.602v.722h1.602zm-1.602 1.785h1.602v.722h-1.602zm7.83-7.053h-6.228v-.104h-1.602v.722h1.602v-.142h6.028l9.255 9.172v3.983l4.251 4.213h17.693c.096.278.368.476.681.476.4 0 .72-.317.72-.714s-.32-.714-.72-.714c-.313 0-.585.198-.681.476h-17.501l-3.971-3.935v-3.984zm26.436 45.646v-1.578h-.601c-.128-.119-.296-.191-.488-.191-.216 0-.416.095-.544.246l-2.69-2.666h-1.506c-.096-.278-.368-.476-.68-.476-.4 0-.721.317-.721.714s.321.714.721.714c.312 0 .584-.198.68-.476h1.297l2.714 2.69c.016.381.337.682.721.682.128 0 .248-.031.36-.095v.436zm4.691-1.578h.729v1.587h-.729zm-1.409-7.149c.096-.278.369-.476.681-.476.4 0 .728.317.728.722 0 .396-.32.714-.72.714-.312 0-.585-.198-.681-.476h-11.792l-13.739-13.616v-5.268c-.28-.095-.48-.365-.48-.675 0-.396.32-.714.72-.714.401 0 .721.318.721.714 0 .31-.2.58-.48.675v5.07l13.45 13.33zm.329 7.149h-.729v1.587h.729zm-1.81 0h-.728v1.587h.728zm7.23 0h-.729v1.587h.729zm-2.538 0h.728v1.587h-.728z" fill="#5b2727" fill-opacity=".2" fill-rule="evenodd"/></g><g filter="url(#e)"><path d="m119.596 260 4.265-11.828h2.999l4.265 11.828h-2.633l-.866-2.515h-4.548l-.866 2.515zm4.198-4.598h3.132l-1.566-4.564zm10.316-7.23h2.532v11.828h-2.532zm11.508 0c2.449 0 4.248 1.266 4.248 3.548 0 1.5-.866 2.516-2.149 2.849 1.266.15 1.866.75 1.966 2.033l.3 3.398h-2.549l-.233-2.965c-.083-1.033-.633-1.366-2.016-1.366h-2.216v4.331h-2.532v-11.828zm-2.649 5.381h2.283c1.299 0 2.016-.583 2.016-1.616 0-1.05-.7-1.633-2.016-1.633h-2.283z" fill="#727b4e"/></g><g filter="url(#f)"><path d="m111.89 263.606c4.968 0 7.754 2.765 7.754 7.689 0 4.903-2.743 7.646-7.624 7.646h-5.422v-15.335zm-2.009 12.571h2.009c2.981 0 4.406-1.577 4.406-4.903s-1.425-4.903-4.406-4.903h-2.009zm18.642-12.571c3.175 0 5.508 1.642 5.508 4.601 0 1.944-1.123 3.261-2.786 3.693 1.641.195 2.419.972 2.548 2.635l.389 4.406h-3.304l-.303-3.844c-.108-1.339-.821-1.771-2.613-1.771h-2.873v5.615h-3.283v-15.335zm-3.434 6.977h2.959c1.685 0 2.614-.756 2.614-2.095 0-1.361-.908-2.117-2.614-2.117h-2.959zm17.12 8.704c-4.666 0-7.452-3.067-7.452-7.992 0-4.967 2.786-8.034 7.452-8.034 4.665 0 7.473 3.067 7.473 8.034 0 4.925-2.808 7.992-7.473 7.992zm-4.061-7.992c0 3.283 1.512 5.227 4.061 5.227 2.591 0 4.082-1.944 4.082-5.227 0-3.304-1.491-5.27-4.082-5.27-2.549 0-4.061 1.966-4.061 5.27zm19.629-7.689c3.672 0 5.896 1.901 5.896 5.011s-2.224 5.033-5.896 5.033h-2.851v5.291h-3.283v-15.335zm-2.851 7.279h2.656c1.728 0 2.722-.777 2.722-2.268 0-1.49-.994-2.246-2.722-2.246h-2.656z" fill="#7c75ff"/></g></g></svg>